solid OpenSCAD_Model
facet normal -0 0 1
   outer loop
       vertex 0 45 25
       vertex 25 20 25
       vertex 25 45 25
   end loop
endfacet
facet normal 0 0 1
   outer loop
       vertex 25 20 25
       vertex 0 45 25
       vertex 0 20 25
   end loop
endfacet
facet normal 0 0 -1
   outer loop
       vertex 0 20 0
       vertex 25 45 0
       vertex 25 20 0
   end loop
endfacet
facet normal -0 0 -1
   outer loop
       vertex 25 45 0
       vertex 0 20 0
       vertex 0 45 0
   end loop
endfacet
facet normal 0 -1 0
   outer loop
       vertex 0 20 0
       vertex 25 20 25
       vertex 0 20 25
   end loop
endfacet
facet normal 0 -1 -0
   outer loop
       vertex 25 20 25
       vertex 0 20 0
       vertex 25 20 0
   end loop
endfacet
facet normal 1 -0 0
   outer loop
       vertex 25 20 25
       vertex 25 45 0
       vertex 25 45 25
   end loop
endfacet
facet normal 1 0 0
   outer loop
       vertex 25 45 0
       vertex 25 20 25
       vertex 25 20 0
   end loop
endfacet
facet normal 0 1 -0
   outer loop
       vertex 25 45 0
       vertex 0 45 25
       vertex 25 45 25
   end loop
endfacet
facet normal 0 1 0
   outer loop
       vertex 0 45 25
       vertex 25 45 0
       vertex 0 45 0
   end loop
endfacet
facet normal -1 0 0
   outer loop
       vertex 0 20 0
       vertex 0 45 25
       vertex 0 45 0
   end loop
endfacet
facet normal -1 -0 0
   outer loop
       vertex 0 45 25
       vertex 0 20 0
       vertex 0 20 25
   end loop
endfacet
facet normal -0 0 1
   outer loop
       vertex 0 35 25
       vertex 25 10 25
       vertex 25 35 25
   end loop
endfacet
facet normal 0 0 1
   outer loop
       vertex 25 10 25
       vertex 0 35 25
       vertex 0 10 25
   end loop
endfacet
facet normal 0 0 -1
   outer loop
       vertex 0 10 0
       vertex 25 35 0
       vertex 25 10 0
   end loop
endfacet
facet normal -0 0 -1
   outer loop
       vertex 25 35 0
       vertex 0 10 0
       vertex 0 35 0
   end loop
endfacet
facet normal 0 -1 0
   outer loop
       vertex 0 10 0
       vertex 25 10 25
       vertex 0 10 25
   end loop
endfacet
facet normal 0 -1 -0
   outer loop
       vertex 25 10 25
       vertex 0 10 0
       vertex 25 10 0
   end loop
endfacet
facet normal 1 -0 0
   outer loop
       vertex 25 10 25
       vertex 25 35 0
       vertex 25 35 25
   end loop
endfacet
facet normal 1 0 0
   outer loop
       vertex 25 35 0
       vertex 25 10 25
       vertex 25 10 0
   end loop
endfacet
facet normal 0 1 -0
   outer loop
       vertex 25 35 0
       vertex 0 35 25
       vertex 25 35 25
   end loop
endfacet
facet normal 0 1 0
   outer loop
       vertex 0 35 25
       vertex 25 35 0
       vertex 0 35 0
   end loop
endfacet
facet normal -1 0 0
   outer loop
       vertex 0 10 0
       vertex 0 35 25
       vertex 0 35 0
   end loop
endfacet
facet normal -1 -0 0
   outer loop
       vertex 0 35 25
       vertex 0 10 0
       vertex 0 10 25
   end loop
endfacet
endsolid OpenSCAD_Model