solid OpenSCAD_Model
  facet normal 0 0 1
     outer loop
         vertex 120 0 50
         vertex 119.563 4.15823 50
         vertex 100 0 50
     endloop
  endfacet
  facet normal -0.950912 0.308972 -0.0173838
     outer loop
         vertex 120 0 50
         vertex 119.563 -4.15827 0
         vertex 118.271 -8.13476 0
     endloop
  endfacet
  facet normal 0.993211 0.104391 -0.0513312
     outer loop
         vertex 120 0 50
         vertex 118.271 -8.13476 0
         vertex 119.563 4.15823 50
     endloop
  endfacet
  facet normal -0 0 -1
     outer loop
         vertex 119.563 -4.15827 0
         vertex 118.271 -8.13476 0
         vertex 100 0 0
     endloop
  endfacet
  facet normal 0 0 1
     outer loop
         vertex 119.563 4.15823 50
         vertex 118.271 8.13473 50
         vertex 100 0 50
     endloop
  endfacet
  facet normal -0.86168 0.497493 -0.100047
     outer loop
         vertex 119.563 4.15823 50
         vertex 118.271 -8.13476 0
         vertex 116.18 -11.7557 0
     endloop
  endfacet
  facet normal 0.938714 0.305007 -0.160584
     outer loop
         vertex 119.563 4.15823 50
         vertex 116.18 -11.7557 0
         vertex 118.271 8.13473 50
     endloop
  endfacet
  facet normal -0 0 -1
     outer loop
         vertex 118.271 -8.13476 0
         vertex 116.18 -11.7557 0
         vertex 100 0 0
     endloop
  endfacet
  facet normal 0 0 1
     outer loop
         vertex 118.271 8.13473 50
         vertex 116.18 11.7557 50
         vertex 100 0 50
     endloop
  endfacet
  facet normal -0.723418 0.65137 -0.228874
     outer loop
         vertex 118.271 8.13473 50
         vertex 116.18 -11.7557 0
         vertex 113.383 -14.8629 0
     endloop
  endfacet
  facet normal 0.826098 0.476948 -0.300138
     outer loop
         vertex 118.271 8.13473 50
         vertex 113.383 -14.8629 0
         vertex 116.18 11.7557 50
     endloop
  endfacet
  facet normal -0 0 -1
     outer loop
         vertex 116.18 -11.7557 0
         vertex 113.383 -14.8629 0
         vertex 100 0 0
     endloop
  endfacet
  facet normal 0 0 1
     outer loop
         vertex 116.18 11.7557 50
         vertex 113.383 14.8629 50
         vertex 100 0 50
     endloop
  endfacet
  facet normal -0.546156 0.751721 -0.369635
     outer loop
         vertex 116.18 11.7557 50
         vertex 113.383 -14.8629 0
         vertex 110 -17.3205 0
     endloop
  endfacet
  facet normal 0.669708 0.603007 -0.433444
     outer loop
         vertex 116.18 11.7557 50
         vertex 110 -17.3205 0
         vertex 113.383 14.8629 50
     endloop
  endfacet
  facet normal -0 0 -1
     outer loop
         vertex 113.383 -14.8629 0
         vertex 110 -17.3205 0
         vertex 100 0 0
     endloop
  endfacet
  facet normal 0 0 1
     outer loop
         vertex 113.383 14.8629 50
         vertex 110 17.3205 50
         vertex 100 0 50
     endloop
  endfacet
  facet normal -0.354803 0.796903 -0.488938
     outer loop
         vertex 113.383 14.8629 50
         vertex 110 -17.3205 0
         vertex 106.18 -19.0211 0
     endloop
  endfacet
  facet normal 0.496664 0.6836 -0.534805
     outer loop
         vertex 113.383 14.8629 50
         vertex 106.18 -19.0211 0
         vertex 110 17.3205 50
     endloop
  endfacet
  facet normal -0 0 -1
     outer loop
         vertex 110 -17.3205 0
         vertex 106.18 -19.0211 0
         vertex 100 0 0
     endloop
  endfacet
  facet normal 0 0 1
     outer loop
         vertex 110 17.3205 50
         vertex 106.18 19.0211 50
         vertex 100 0 50
     endloop
  endfacet
  facet normal -0.170722 0.803187 -0.570741
     outer loop
         vertex 110 17.3205 50
         vertex 106.18 -19.0211 0
         vertex 102.091 -19.8904 0
     endloop
  endfacet
  facet normal 0.326293 0.732865 -0.597028
     outer loop
         vertex 110 17.3205 50
         vertex 102.091 -19.8904 0
         vertex 106.18 19.0211 50
     endloop
  endfacet
  facet normal -0 0 -1
     outer loop
         vertex 106.18 -19.0211 0
         vertex 102.091 -19.8904 0
         vertex 100 0 0
     endloop
  endfacet
  facet normal 0 0 1
     outer loop
         vertex 106.18 19.0211 50
         vertex 102.091 19.8904 50
         vertex 100 0 50
     endloop
  endfacet
  facet normal 3.60007e-07 0.789179 -0.614164
     outer loop
         vertex 106.18 19.0211 50
         vertex 102.091 -19.8904 0
         vertex 97.9094 -19.8904 0
     endloop
  endfacet
  facet normal 0.162699 0.765439 -0.622602
     outer loop
         vertex 106.18 19.0211 50
         vertex 97.9094 -19.8904 0
         vertex 102.091 19.8904 50
     endloop
  endfacet
  facet normal 0 0 -1
     outer loop
         vertex 102.091 -19.8904 0
         vertex 97.9094 -19.8904 0
         vertex 100 0 0
     endloop
  endfacet
  facet normal 0 0 1
     outer loop
         vertex 102.091 19.8904 50
         vertex 97.9094 19.8904 50
         vertex 100 0 50
     endloop
  endfacet
  facet normal 0.162699 0.765439 -0.622602
     outer loop
         vertex 102.091 19.8904 50
         vertex 97.9094 -19.8904 0
         vertex 93.8197 -19.0211 0
     endloop
  endfacet
  facet normal 0 0.789179 -0.614164
     outer loop
         vertex 102.091 19.8904 50
         vertex 93.8197 -19.0211 0
         vertex 97.9094 19.8904 50
     endloop
  endfacet
  facet normal 0 0 -1
     outer loop
         vertex 97.9094 -19.8904 0
         vertex 93.8197 -19.0211 0
         vertex 100 0 0
     endloop
  endfacet
  facet normal 0 0 1
     outer loop
         vertex 97.9094 19.8904 50
         vertex 93.8197 19.0211 50
         vertex 100 0 50
     endloop
  endfacet
  facet normal 0.326293 0.732865 -0.597028
     outer loop
         vertex 97.9094 19.8904 50
         vertex 93.8197 -19.0211 0
         vertex 90 -17.3205 0
     endloop
  endfacet
  facet normal -0.170723 0.803187 -0.57074
     outer loop
         vertex 97.9094 19.8904 50
         vertex 90 -17.3205 0
         vertex 93.8197 19.0211 50
     endloop
  endfacet
  facet normal 0 0 -1
     outer loop
         vertex 93.8197 -19.0211 0
         vertex 90 -17.3205 0
         vertex 100 0 0
     endloop
  endfacet
  facet normal 0 0 1
     outer loop
         vertex 93.8197 19.0211 50
         vertex 90 17.3205 50
         vertex 100 0 50
     endloop
  endfacet
  facet normal 0.496664 0.6836 -0.534805
     outer loop
         vertex 93.8197 19.0211 50
         vertex 90 -17.3205 0
         vertex 86.6174 -14.8629 0
     endloop
  endfacet
  facet normal -0.354804 0.796903 -0.488938
     outer loop
         vertex 93.8197 19.0211 50
         vertex 86.6174 -14.8629 0
         vertex 90 17.3205 50
     endloop
  endfacet
  facet normal 0 0 -1
     outer loop
         vertex 90 -17.3205 0
         vertex 86.6174 -14.8629 0
         vertex 100 0 0
     endloop
  endfacet
  facet normal 0 0 1
     outer loop
         vertex 90 17.3205 50
         vertex 86.6174 14.8629 50
         vertex 100 0 50
     endloop
  endfacet
  facet normal 0.669707 0.603008 -0.433444
     outer loop
         vertex 90 17.3205 50
         vertex 86.6174 -14.8629 0
         vertex 83.8197 -11.7557 0
     endloop
  endfacet
  facet normal -0.546156 0.75172 -0.369635
     outer loop
         vertex 90 17.3205 50
         vertex 83.8197 -11.7557 0
         vertex 86.6174 14.8629 50
     endloop
  endfacet
  facet normal 0 0 -1
     outer loop
         vertex 86.6174 -14.8629 0
         vertex 83.8197 -11.7557 0
         vertex 100 0 0
     endloop
  endfacet
  facet normal 0 0 1
     outer loop
         vertex 86.6174 14.8629 50
         vertex 83.8197 11.7557 50
         vertex 100 0 50
     endloop
  endfacet
  facet normal 0.826098 0.476948 -0.300138
     outer loop
         vertex 86.6174 14.8629 50
         vertex 83.8197 -11.7557 0
         vertex 81.7291 -8.13474 0
     endloop
  endfacet
  facet normal -0.723419 0.651369 -0.228873
     outer loop
         vertex 86.6174 14.8629 50
         vertex 81.7291 -8.13474 0
         vertex 83.8197 11.7557 50
     endloop
  endfacet
  facet normal 0 0 -1
     outer loop
         vertex 83.8197 -11.7557 0
         vertex 81.7291 -8.13474 0
         vertex 100 0 0
     endloop
  endfacet
  facet normal 0 0 1
     outer loop
         vertex 83.8197 11.7557 50
         vertex 81.7291 8.13473 50
         vertex 100 0 50
     endloop
  endfacet
  facet normal 0.938714 0.305007 -0.160583
     outer loop
         vertex 83.8197 11.7557 50
         vertex 81.7291 -8.13474 0
         vertex 80.437 -4.15824 0
     endloop
  endfacet
  facet normal -0.86168 0.497491 -0.100046
     outer loop
         vertex 83.8197 11.7557 50
         vertex 80.437 -4.15824 0
         vertex 81.7291 8.13473 50
     endloop
  endfacet
  facet normal 0 0 -1
     outer loop
         vertex 81.7291 -8.13474 0
         vertex 80.437 -4.15824 0
         vertex 100 0 0
     endloop
  endfacet
  facet normal 0 0 1
     outer loop
         vertex 81.7291 8.13473 50
         vertex 80.437 4.15823 50
         vertex 100 0 50
     endloop
  endfacet
  facet normal 0.993211 0.104391 -0.0513308
     outer loop
         vertex 81.7291 8.13473 50
         vertex 80.437 -4.15824 0
         vertex 80 -1.74846e-06 0
     endloop
  endfacet
  facet normal -0.950913 0.30897 -0.0173835
     outer loop
         vertex 81.7291 8.13473 50
         vertex 80 -1.74846e-06 0
         vertex 80.437 4.15823 50
     endloop
  endfacet
  facet normal 0 0 -1
     outer loop
         vertex 80.437 -4.15824 0
         vertex 80 -1.74846e-06 0
         vertex 100 0 0
     endloop
  endfacet
  facet normal 0 0 1
     outer loop
         vertex 80.437 4.15823 50
         vertex 80 -1.74846e-06 50
         vertex 100 0 50
     endloop
  endfacet
  facet normal 0.994522 -0.104528 0
     outer loop
         vertex 80.437 4.15823 50
         vertex 80 -1.74846e-06 0
         vertex 80.437 4.15823 0
     endloop
  endfacet
  facet normal -0.994522 0.104528 0
     outer loop
         vertex 80.437 4.15823 50
         vertex 80.437 4.15823 0
         vertex 80 -1.74846e-06 50
     endloop
  endfacet
  facet normal 0 0 -1
     outer loop
         vertex 80 -1.74846e-06 0
         vertex 80.437 4.15823 0
         vertex 100 0 0
     endloop
  endfacet
  facet normal -0 0 1
     outer loop
         vertex 80 -1.74846e-06 50
         vertex 80.437 -4.15824 50
         vertex 100 0 50
     endloop
  endfacet
  facet normal 0.950913 -0.30897 -0.0173835
     outer loop
         vertex 80 -1.74846e-06 50
         vertex 80.437 4.15823 0
         vertex 81.7291 8.13473 0
     endloop
  endfacet
  facet normal -0.993211 -0.104391 -0.0513308
     outer loop
         vertex 80 -1.74846e-06 50
         vertex 81.7291 8.13473 0
         vertex 80.437 -4.15824 50
     endloop
  endfacet
  facet normal 0 0 -1
     outer loop
         vertex 80.437 4.15823 0
         vertex 81.7291 8.13473 0
         vertex 100 0 0
     endloop
  endfacet
  facet normal -0 0 1
     outer loop
         vertex 80.437 -4.15824 50
         vertex 81.7291 -8.13474 50
         vertex 100 0 50
     endloop
  endfacet
  facet normal 0.86168 -0.497491 -0.100046
     outer loop
         vertex 80.437 -4.15824 50
         vertex 81.7291 8.13473 0
         vertex 83.8197 11.7557 0
     endloop
  endfacet
  facet normal -0.938714 -0.305007 -0.160583
     outer loop
         vertex 80.437 -4.15824 50
         vertex 83.8197 11.7557 0
         vertex 81.7291 -8.13474 50
     endloop
  endfacet
  facet normal 0 0 -1
     outer loop
         vertex 81.7291 8.13473 0
         vertex 83.8197 11.7557 0
         vertex 100 0 0
     endloop
  endfacet
  facet normal -0 0 1
     outer loop
         vertex 81.7291 -8.13474 50
         vertex 83.8197 -11.7557 50
         vertex 100 0 50
     endloop
  endfacet
  facet normal 0.723419 -0.651369 -0.228873
     outer loop
         vertex 81.7291 -8.13474 50
         vertex 83.8197 11.7557 0
         vertex 86.6174 14.8629 0
     endloop
  endfacet
  facet normal -0.826098 -0.476948 -0.300138
     outer loop
         vertex 81.7291 -8.13474 50
         vertex 86.6174 14.8629 0
         vertex 83.8197 -11.7557 50
     endloop
  endfacet
  facet normal 0 0 -1
     outer loop
         vertex 83.8197 11.7557 0
         vertex 86.6174 14.8629 0
         vertex 100 0 0
     endloop
  endfacet
  facet normal -0 0 1
     outer loop
         vertex 83.8197 -11.7557 50
         vertex 86.6174 -14.8629 50
         vertex 100 0 50
     endloop
  endfacet
  facet normal 0.546156 -0.75172 -0.369635
     outer loop
         vertex 83.8197 -11.7557 50
         vertex 86.6174 14.8629 0
         vertex 90 17.3205 0
     endloop
  endfacet
  facet normal -0.669707 -0.603008 -0.433444
     outer loop
         vertex 83.8197 -11.7557 50
         vertex 90 17.3205 0
         vertex 86.6174 -14.8629 50
     endloop
  endfacet
  facet normal 0 0 -1
     outer loop
         vertex 86.6174 14.8629 0
         vertex 90 17.3205 0
         vertex 100 0 0
     endloop
  endfacet
  facet normal -0 0 1
     outer loop
         vertex 86.6174 -14.8629 50
         vertex 90 -17.3205 50
         vertex 100 0 50
     endloop
  endfacet
  facet normal 0.354804 -0.796903 -0.488938
     outer loop
         vertex 86.6174 -14.8629 50
         vertex 90 17.3205 0
         vertex 93.8197 19.0211 0
     endloop
  endfacet
  facet normal -0.496664 -0.6836 -0.534805
     outer loop
         vertex 86.6174 -14.8629 50
         vertex 93.8197 19.0211 0
         vertex 90 -17.3205 50
     endloop
  endfacet
  facet normal 0 0 -1
     outer loop
         vertex 90 17.3205 0
         vertex 93.8197 19.0211 0
         vertex 100 0 0
     endloop
  endfacet
  facet normal -0 0 1
     outer loop
         vertex 90 -17.3205 50
         vertex 93.8197 -19.0211 50
         vertex 100 0 50
     endloop
  endfacet
  facet normal 0.170723 -0.803187 -0.57074
     outer loop
         vertex 90 -17.3205 50
         vertex 93.8197 19.0211 0
         vertex 97.9094 19.8904 0
     endloop
  endfacet
  facet normal -0.326293 -0.732865 -0.597028
     outer loop
         vertex 90 -17.3205 50
         vertex 97.9094 19.8904 0
         vertex 93.8197 -19.0211 50
     endloop
  endfacet
  facet normal 0 0 -1
     outer loop
         vertex 93.8197 19.0211 0
         vertex 97.9094 19.8904 0
         vertex 100 0 0
     endloop
  endfacet
  facet normal -0 0 1
     outer loop
         vertex 93.8197 -19.0211 50
         vertex 97.9094 -19.8904 50
         vertex 100 0 50
     endloop
  endfacet
  facet normal 0 -0.789179 -0.614164
     outer loop
         vertex 93.8197 -19.0211 50
         vertex 97.9094 19.8904 0
         vertex 102.091 19.8904 0
     endloop
  endfacet
  facet normal -0.162699 -0.765439 -0.622602
     outer loop
         vertex 93.8197 -19.0211 50
         vertex 102.091 19.8904 0
         vertex 97.9094 -19.8904 50
     endloop
  endfacet
  facet normal 0 0 -1
     outer loop
         vertex 97.9094 19.8904 0
         vertex 102.091 19.8904 0
         vertex 100 0 0
     endloop
  endfacet
  facet normal -0 0 1
     outer loop
         vertex 97.9094 -19.8904 50
         vertex 102.091 -19.8904 50
         vertex 100 0 50
     endloop
  endfacet
  facet normal -0.162699 -0.765439 -0.622602
     outer loop
         vertex 97.9094 -19.8904 50
         vertex 102.091 19.8904 0
         vertex 106.18 19.0211 0
     endloop
  endfacet
  facet normal -3.60007e-07 -0.789179 -0.614164
     outer loop
         vertex 97.9094 -19.8904 50
         vertex 106.18 19.0211 0
         vertex 102.091 -19.8904 50
     endloop
  endfacet
  facet normal 0 -0 -1
     outer loop
         vertex 102.091 19.8904 0
         vertex 106.18 19.0211 0
         vertex 100 0 0
     endloop
  endfacet
  facet normal 0 -0 1
     outer loop
         vertex 102.091 -19.8904 50
         vertex 106.18 -19.0211 50
         vertex 100 0 50
     endloop
  endfacet
  facet normal -0.326293 -0.732865 -0.597028
     outer loop
         vertex 102.091 -19.8904 50
         vertex 106.18 19.0211 0
         vertex 110 17.3205 0
     endloop
  endfacet
  facet normal 0.170722 -0.803187 -0.570741
     outer loop
         vertex 102.091 -19.8904 50
         vertex 110 17.3205 0
         vertex 106.18 -19.0211 50
     endloop
  endfacet
  facet normal 0 -0 -1
     outer loop
         vertex 106.18 19.0211 0
         vertex 110 17.3205 0
         vertex 100 0 0
     endloop
  endfacet
  facet normal 0 -0 1
     outer loop
         vertex 106.18 -19.0211 50
         vertex 110 -17.3205 50
         vertex 100 0 50
     endloop
  endfacet
  facet normal -0.496664 -0.6836 -0.534805
     outer loop
         vertex 106.18 -19.0211 50
         vertex 110 17.3205 0
         vertex 113.383 14.8629 0
     endloop
  endfacet
  facet normal 0.354803 -0.796903 -0.488938
     outer loop
         vertex 106.18 -19.0211 50
         vertex 113.383 14.8629 0
         vertex 110 -17.3205 50
     endloop
  endfacet
  facet normal 0 -0 -1
     outer loop
         vertex 110 17.3205 0
         vertex 113.383 14.8629 0
         vertex 100 0 0
     endloop
  endfacet
  facet normal 0 -0 1
     outer loop
         vertex 110 -17.3205 50
         vertex 113.383 -14.8629 50
         vertex 100 0 50
     endloop
  endfacet
  facet normal -0.669708 -0.603007 -0.433444
     outer loop
         vertex 110 -17.3205 50
         vertex 113.383 14.8629 0
         vertex 116.18 11.7557 0
     endloop
  endfacet
  facet normal 0.546156 -0.751721 -0.369635
     outer loop
         vertex 110 -17.3205 50
         vertex 116.18 11.7557 0
         vertex 113.383 -14.8629 50
     endloop
  endfacet
  facet normal 0 -0 -1
     outer loop
         vertex 113.383 14.8629 0
         vertex 116.18 11.7557 0
         vertex 100 0 0
     endloop
  endfacet
  facet normal 0 -0 1
     outer loop
         vertex 113.383 -14.8629 50
         vertex 116.18 -11.7557 50
         vertex 100 0 50
     endloop
  endfacet
  facet normal -0.826098 -0.476948 -0.300138
     outer loop
         vertex 113.383 -14.8629 50
         vertex 116.18 11.7557 0
         vertex 118.271 8.13473 0
     endloop
  endfacet
  facet normal 0.723418 -0.65137 -0.228874
     outer loop
         vertex 113.383 -14.8629 50
         vertex 118.271 8.13473 0
         vertex 116.18 -11.7557 50
     endloop
  endfacet
  facet normal 0 -0 -1
     outer loop
         vertex 116.18 11.7557 0
         vertex 118.271 8.13473 0
         vertex 100 0 0
     endloop
  endfacet
  facet normal 0 -0 1
     outer loop
         vertex 116.18 -11.7557 50
         vertex 118.271 -8.13476 50
         vertex 100 0 50
     endloop
  endfacet
  facet normal -0.938714 -0.305007 -0.160584
     outer loop
         vertex 116.18 -11.7557 50
         vertex 118.271 8.13473 0
         vertex 119.563 4.15823 0
     endloop
  endfacet
  facet normal 0.86168 -0.497493 -0.100047
     outer loop
         vertex 116.18 -11.7557 50
         vertex 119.563 4.15823 0
         vertex 118.271 -8.13476 50
     endloop
  endfacet
  facet normal 0 -0 -1
     outer loop
         vertex 118.271 8.13473 0
         vertex 119.563 4.15823 0
         vertex 100 0 0
     endloop
  endfacet
  facet normal 0 -0 1
     outer loop
         vertex 118.271 -8.13476 50
         vertex 119.563 -4.15827 50
         vertex 100 0 50
     endloop
  endfacet
  facet normal -0.993211 -0.104391 -0.0513312
     outer loop
         vertex 118.271 -8.13476 50
         vertex 119.563 4.15823 0
         vertex 120 0 0
     endloop
  endfacet
  facet normal 0.950912 -0.308972 -0.0173838
     outer loop
         vertex 118.271 -8.13476 50
         vertex 120 0 0
         vertex 119.563 -4.15827 50
     endloop
  endfacet
  facet normal 0 -0 -1
     outer loop
         vertex 119.563 4.15823 0
         vertex 120 0 0
         vertex 100 0 0
     endloop
  endfacet
  facet normal 0 -0 1
     outer loop
         vertex 119.563 -4.15827 50
         vertex 120 -4.41868e-05 50
         vertex 100 0 50
     endloop
  endfacet
  facet normal 0 0.99656 0.0828793
     outer loop
         vertex 119.563 -4.15827 50
         vertex 120 0 0
         vertex 100 0 0
     endloop
  endfacet
  facet normal 0.924087 -0.0971273 -0.369635
     outer loop
         vertex 119.563 -4.15827 50
         vertex 100 0 0
         vertex 120 -4.41868e-05 50
     endloop
  endfacet
  facet normal 0 0 0
     outer loop
         vertex 120 0 0
         vertex 100 0 0
         vertex 100 0 0
     endloop
  endfacet
endsolid OpenSCAD_Model