solid OpenSCAD_Model
facet normal 0 0 1
   outer loop
       vertex 120 0 50
       vertex 119.563 4.15823 50
       vertex 100 0 50
   end loop
endfacet
facet normal 0.994522 0.104528 0
   outer loop
       vertex 120 0 50
       vertex 120 0 0
       vertex 119.563 4.15823 0
   end loop
endfacet
facet normal 0.994522 0.104528 0
   outer loop
       vertex 120 0 50
       vertex 119.563 4.15823 0
       vertex 119.563 4.15823 50
   end loop
endfacet
facet normal 0 0 1
   outer loop
       vertex 120 0 0
       vertex 119.563 4.15823 0
       vertex 100 0 0
   end loop
endfacet
facet normal 0 0 1
   outer loop
       vertex 119.563 4.15823 50
       vertex 118.271 8.13473 50
       vertex 100 0 50
   end loop
endfacet
facet normal 0.951056 0.309017 0
   outer loop
       vertex 119.563 4.15823 50
       vertex 119.563 4.15823 0
       vertex 118.271 8.13473 0
   end loop
endfacet
facet normal 0.951056 0.309017 0
   outer loop
       vertex 119.563 4.15823 50
       vertex 118.271 8.13473 0
       vertex 118.271 8.13473 50
   end loop
endfacet
facet normal 0 0 1
   outer loop
       vertex 119.563 4.15823 0
       vertex 118.271 8.13473 0
       vertex 100 0 0
   end loop
endfacet
facet normal 0 0 1
   outer loop
       vertex 118.271 8.13473 50
       vertex 116.18 11.7557 50
       vertex 100 0 50
   end loop
endfacet
facet normal 0.866025 0.5 0
   outer loop
       vertex 118.271 8.13473 50
       vertex 118.271 8.13473 0
       vertex 116.18 11.7557 0
   end loop
endfacet
facet normal 0.866025 0.5 0
   outer loop
       vertex 118.271 8.13473 50
       vertex 116.18 11.7557 0
       vertex 116.18 11.7557 50
   end loop
endfacet
facet normal 0 0 1
   outer loop
       vertex 118.271 8.13473 0
       vertex 116.18 11.7557 0
       vertex 100 0 0
   end loop
endfacet
facet normal 0 0 1
   outer loop
       vertex 116.18 11.7557 50
       vertex 113.383 14.8629 50
       vertex 100 0 50
   end loop
endfacet
facet normal 0.743145 0.669131 0
   outer loop
       vertex 116.18 11.7557 50
       vertex 116.18 11.7557 0
       vertex 113.383 14.8629 0
   end loop
endfacet
facet normal 0.743145 0.669131 0
   outer loop
       vertex 116.18 11.7557 50
       vertex 113.383 14.8629 0
       vertex 113.383 14.8629 50
   end loop
endfacet
facet normal 0 0 1
   outer loop
       vertex 116.18 11.7557 0
       vertex 113.383 14.8629 0
       vertex 100 0 0
   end loop
endfacet
facet normal 0 0 1
   outer loop
       vertex 113.383 14.8629 50
       vertex 110 17.3205 50
       vertex 100 0 50
   end loop
endfacet
facet normal 0.587785 0.809017 0
   outer loop
       vertex 113.383 14.8629 50
       vertex 113.383 14.8629 0
       vertex 110 17.3205 0
   end loop
endfacet
facet normal 0.587785 0.809017 0
   outer loop
       vertex 113.383 14.8629 50
       vertex 110 17.3205 0
       vertex 110 17.3205 50
   end loop
endfacet
facet normal 0 0 1
   outer loop
       vertex 113.383 14.8629 0
       vertex 110 17.3205 0
       vertex 100 0 0
   end loop
endfacet
facet normal 0 0 1
   outer loop
       vertex 110 17.3205 50
       vertex 106.18 19.0211 50
       vertex 100 0 50
   end loop
endfacet
facet normal 0.406737 0.913545 0
   outer loop
       vertex 110 17.3205 50
       vertex 110 17.3205 0
       vertex 106.18 19.0211 0
   end loop
endfacet
facet normal 0.406737 0.913545 0
   outer loop
       vertex 110 17.3205 50
       vertex 106.18 19.0211 0
       vertex 106.18 19.0211 50
   end loop
endfacet
facet normal 0 0 1
   outer loop
       vertex 110 17.3205 0
       vertex 106.18 19.0211 0
       vertex 100 0 0
   end loop
endfacet
facet normal 0 0 1
   outer loop
       vertex 106.18 19.0211 50
       vertex 102.091 19.8904 50
       vertex 100 0 50
   end loop
endfacet
facet normal 0.207912 0.978148 0
   outer loop
       vertex 106.18 19.0211 50
       vertex 106.18 19.0211 0
       vertex 102.091 19.8904 0
   end loop
endfacet
facet normal 0.207912 0.978148 0
   outer loop
       vertex 106.18 19.0211 50
       vertex 102.091 19.8904 0
       vertex 102.091 19.8904 50
   end loop
endfacet
facet normal 0 0 1
   outer loop
       vertex 106.18 19.0211 0
       vertex 102.091 19.8904 0
       vertex 100 0 0
   end loop
endfacet
facet normal 0 0 1
   outer loop
       vertex 102.091 19.8904 50
       vertex 97.9094 19.8904 50
       vertex 100 0 50
   end loop
endfacet
facet normal 0 1 0
   outer loop
       vertex 102.091 19.8904 50
       vertex 102.091 19.8904 0
       vertex 97.9094 19.8904 0
   end loop
endfacet
facet normal 0 1 0
   outer loop
       vertex 102.091 19.8904 50
       vertex 97.9094 19.8904 0
       vertex 97.9094 19.8904 50
   end loop
endfacet
facet normal 0 0 1
   outer loop
       vertex 102.091 19.8904 0
       vertex 97.9094 19.8904 0
       vertex 100 0 0
   end loop
endfacet
facet normal 0 0 1
   outer loop
       vertex 97.9094 19.8904 50
       vertex 93.8197 19.0211 50
       vertex 100 0 50
   end loop
endfacet
facet normal -0.207912 0.978148 0
   outer loop
       vertex 97.9094 19.8904 50
       vertex 97.9094 19.8904 0
       vertex 93.8197 19.0211 0
   end loop
endfacet
facet normal -0.207912 0.978148 0
   outer loop
       vertex 97.9094 19.8904 50
       vertex 93.8197 19.0211 0
       vertex 93.8197 19.0211 50
   end loop
endfacet
facet normal 0 0 1
   outer loop
       vertex 97.9094 19.8904 0
       vertex 93.8197 19.0211 0
       vertex 100 0 0
   end loop
endfacet
facet normal 0 0 1
   outer loop
       vertex 93.8197 19.0211 50
       vertex 90 17.3205 50
       vertex 100 0 50
   end loop
endfacet
facet normal -0.406737 0.913545 0
   outer loop
       vertex 93.8197 19.0211 50
       vertex 93.8197 19.0211 0
       vertex 90 17.3205 0
   end loop
endfacet
facet normal -0.406737 0.913545 0
   outer loop
       vertex 93.8197 19.0211 50
       vertex 90 17.3205 0
       vertex 90 17.3205 50
   end loop
endfacet
facet normal 0 0 1
   outer loop
       vertex 93.8197 19.0211 0
       vertex 90 17.3205 0
       vertex 100 0 0
   end loop
endfacet
facet normal 0 0 1
   outer loop
       vertex 90 17.3205 50
       vertex 86.6174 14.8629 50
       vertex 100 0 50
   end loop
endfacet
facet normal -0.587785 0.809017 0
   outer loop
       vertex 90 17.3205 50
       vertex 90 17.3205 0
       vertex 86.6174 14.8629 0
   end loop
endfacet
facet normal -0.587785 0.809017 0
   outer loop
       vertex 90 17.3205 50
       vertex 86.6174 14.8629 0
       vertex 86.6174 14.8629 50
   end loop
endfacet
facet normal 0 0 1
   outer loop
       vertex 90 17.3205 0
       vertex 86.6174 14.8629 0
       vertex 100 0 0
   end loop
endfacet
facet normal 0 0 1
   outer loop
       vertex 86.6174 14.8629 50
       vertex 83.8197 11.7557 50
       vertex 100 0 50
   end loop
endfacet
facet normal -0.743145 0.66913 0
   outer loop
       vertex 86.6174 14.8629 50
       vertex 86.6174 14.8629 0
       vertex 83.8197 11.7557 0
   end loop
endfacet
facet normal -0.743145 0.66913 0
   outer loop
       vertex 86.6174 14.8629 50
       vertex 83.8197 11.7557 0
       vertex 83.8197 11.7557 50
   end loop
endfacet
facet normal 0 0 1
   outer loop
       vertex 86.6174 14.8629 0
       vertex 83.8197 11.7557 0
       vertex 100 0 0
   end loop
endfacet
facet normal 0 0 1
   outer loop
       vertex 83.8197 11.7557 50
       vertex 81.7291 8.13473 50
       vertex 100 0 50
   end loop
endfacet
facet normal -0.866025 0.5 0
   outer loop
       vertex 83.8197 11.7557 50
       vertex 83.8197 11.7557 0
       vertex 81.7291 8.13473 0
   end loop
endfacet
facet normal -0.866025 0.5 0
   outer loop
       vertex 83.8197 11.7557 50
       vertex 81.7291 8.13473 0
       vertex 81.7291 8.13473 50
   end loop
endfacet
facet normal 0 0 1
   outer loop
       vertex 83.8197 11.7557 0
       vertex 81.7291 8.13473 0
       vertex 100 0 0
   end loop
endfacet
facet normal 0 0 1
   outer loop
       vertex 81.7291 8.13473 50
       vertex 80.437 4.15823 50
       vertex 100 0 50
   end loop
endfacet
facet normal -0.951057 0.309017 0
   outer loop
       vertex 81.7291 8.13473 50
       vertex 81.7291 8.13473 0
       vertex 80.437 4.15823 0
   end loop
endfacet
facet normal -0.951057 0.309017 0
   outer loop
       vertex 81.7291 8.13473 50
       vertex 80.437 4.15823 0
       vertex 80.437 4.15823 50
   end loop
endfacet
facet normal 0 0 1
   outer loop
       vertex 81.7291 8.13473 0
       vertex 80.437 4.15823 0
       vertex 100 0 0
   end loop
endfacet
facet normal 0 0 1
   outer loop
       vertex 80.437 4.15823 50
       vertex 80 -1.74846e-06 50
       vertex 100 0 50
   end loop
endfacet
facet normal -0.994522 0.104528 0
   outer loop
       vertex 80.437 4.15823 50
       vertex 80.437 4.15823 0
       vertex 80 -1.74846e-06 0
   end loop
endfacet
facet normal -0.994522 0.104528 0
   outer loop
       vertex 80.437 4.15823 50
       vertex 80 -1.74846e-06 0
       vertex 80 -1.74846e-06 50
   end loop
endfacet
facet normal 0 0 1
   outer loop
       vertex 80.437 4.15823 0
       vertex 80 -1.74846e-06 0
       vertex 100 0 0
   end loop
endfacet
facet normal -0 0 1
   outer loop
       vertex 80 -1.74846e-06 50
       vertex 80.437 -4.15824 50
       vertex 100 0 50
   end loop
endfacet
facet normal -0.994522 -0.104529 -0
   outer loop
       vertex 80 -1.74846e-06 50
       vertex 80 -1.74846e-06 0
       vertex 80.437 -4.15824 0
   end loop
endfacet
facet normal -0.994522 -0.104529 0
   outer loop
       vertex 80 -1.74846e-06 50
       vertex 80.437 -4.15824 0
       vertex 80.437 -4.15824 50
   end loop
endfacet
facet normal -0 0 1
   outer loop
       vertex 80 -1.74846e-06 0
       vertex 80.437 -4.15824 0
       vertex 100 0 0
   end loop
endfacet
facet normal -0 0 1
   outer loop
       vertex 80.437 -4.15824 50
       vertex 81.7291 -8.13473 50
       vertex 100 0 50
   end loop
endfacet
facet normal -0.951057 -0.309017 -0
   outer loop
       vertex 80.437 -4.15824 50
       vertex 80.437 -4.15824 0
       vertex 81.7291 -8.13473 0
   end loop
endfacet
facet normal -0.951057 -0.309017 0
   outer loop
       vertex 80.437 -4.15824 50
       vertex 81.7291 -8.13473 0
       vertex 81.7291 -8.13473 50
   end loop
endfacet
facet normal -0 0 1
   outer loop
       vertex 80.437 -4.15824 0
       vertex 81.7291 -8.13473 0
       vertex 100 0 0
   end loop
endfacet
facet normal -0 0 1
   outer loop
       vertex 81.7291 -8.13473 50
       vertex 83.8197 -11.7557 50
       vertex 100 0 50
   end loop
endfacet
facet normal -0.866025 -0.5 -0
   outer loop
       vertex 81.7291 -8.13473 50
       vertex 81.7291 -8.13473 0
       vertex 83.8197 -11.7557 0
   end loop
endfacet
facet normal -0.866025 -0.5 0
   outer loop
       vertex 81.7291 -8.13473 50
       vertex 83.8197 -11.7557 0
       vertex 83.8197 -11.7557 50
   end loop
endfacet
facet normal -0 0 1
   outer loop
       vertex 81.7291 -8.13473 0
       vertex 83.8197 -11.7557 0
       vertex 100 0 0
   end loop
endfacet
facet normal -0 0 1
   outer loop
       vertex 83.8197 -11.7557 50
       vertex 86.6174 -14.8629 50
       vertex 100 0 50
   end loop
endfacet
facet normal -0.743145 -0.669131 -0
   outer loop
       vertex 83.8197 -11.7557 50
       vertex 83.8197 -11.7557 0
       vertex 86.6174 -14.8629 0
   end loop
endfacet
facet normal -0.743145 -0.669131 0
   outer loop
       vertex 83.8197 -11.7557 50
       vertex 86.6174 -14.8629 0
       vertex 86.6174 -14.8629 50
   end loop
endfacet
facet normal -0 0 1
   outer loop
       vertex 83.8197 -11.7557 0
       vertex 86.6174 -14.8629 0
       vertex 100 0 0
   end loop
endfacet
facet normal -0 0 1
   outer loop
       vertex 86.6174 -14.8629 50
       vertex 90 -17.3205 50
       vertex 100 0 50
   end loop
endfacet
facet normal -0.587785 -0.809017 -0
   outer loop
       vertex 86.6174 -14.8629 50
       vertex 86.6174 -14.8629 0
       vertex 90 -17.3205 0
   end loop
endfacet
facet normal -0.587785 -0.809017 0
   outer loop
       vertex 86.6174 -14.8629 50
       vertex 90 -17.3205 0
       vertex 90 -17.3205 50
   end loop
endfacet
facet normal -0 0 1
   outer loop
       vertex 86.6174 -14.8629 0
       vertex 90 -17.3205 0
       vertex 100 0 0
   end loop
endfacet
facet normal -0 0 1
   outer loop
       vertex 90 -17.3205 50
       vertex 93.8197 -19.0211 50
       vertex 100 0 50
   end loop
endfacet
facet normal -0.406737 -0.913545 -0
   outer loop
       vertex 90 -17.3205 50
       vertex 90 -17.3205 0
       vertex 93.8197 -19.0211 0
   end loop
endfacet
facet normal -0.406737 -0.913545 0
   outer loop
       vertex 90 -17.3205 50
       vertex 93.8197 -19.0211 0
       vertex 93.8197 -19.0211 50
   end loop
endfacet
facet normal -0 0 1
   outer loop
       vertex 90 -17.3205 0
       vertex 93.8197 -19.0211 0
       vertex 100 0 0
   end loop
endfacet
facet normal -0 0 1
   outer loop
       vertex 93.8197 -19.0211 50
       vertex 97.9094 -19.8904 50
       vertex 100 0 50
   end loop
endfacet
facet normal -0.207912 -0.978148 -0
   outer loop
       vertex 93.8197 -19.0211 50
       vertex 93.8197 -19.0211 0
       vertex 97.9094 -19.8904 0
   end loop
endfacet
facet normal -0.207912 -0.978148 0
   outer loop
       vertex 93.8197 -19.0211 50
       vertex 97.9094 -19.8904 0
       vertex 97.9094 -19.8904 50
   end loop
endfacet
facet normal -0 0 1
   outer loop
       vertex 93.8197 -19.0211 0
       vertex 97.9094 -19.8904 0
       vertex 100 0 0
   end loop
endfacet
facet normal -0 0 1
   outer loop
       vertex 97.9094 -19.8904 50
       vertex 102.091 -19.8904 50
       vertex 100 0 50
   end loop
endfacet
facet normal -5.70225e-07 -1 -0
   outer loop
       vertex 97.9094 -19.8904 50
       vertex 97.9094 -19.8904 0
       vertex 102.091 -19.8904 0
   end loop
endfacet
facet normal -5.70225e-07 -1 0
   outer loop
       vertex 97.9094 -19.8904 50
       vertex 102.091 -19.8904 0
       vertex 102.091 -19.8904 50
   end loop
endfacet
facet normal -0 0 1
   outer loop
       vertex 97.9094 -19.8904 0
       vertex 102.091 -19.8904 0
       vertex 100 0 0
   end loop
endfacet
facet normal 0 -0 1
   outer loop
       vertex 102.091 -19.8904 50
       vertex 106.18 -19.0211 50
       vertex 100 0 50
   end loop
endfacet
facet normal 0.207911 -0.978148 0
   outer loop
       vertex 102.091 -19.8904 50
       vertex 102.091 -19.8904 0
       vertex 106.18 -19.0211 0
   end loop
endfacet
facet normal 0.207911 -0.978148 0
   outer loop
       vertex 102.091 -19.8904 50
       vertex 106.18 -19.0211 0
       vertex 106.18 -19.0211 50
   end loop
endfacet
facet normal 0 -0 1
   outer loop
       vertex 102.091 -19.8904 0
       vertex 106.18 -19.0211 0
       vertex 100 0 0
   end loop
endfacet
facet normal 0 -0 1
   outer loop
       vertex 106.18 -19.0211 50
       vertex 110 -17.3205 50
       vertex 100 0 50
   end loop
endfacet
facet normal 0.406736 -0.913546 0
   outer loop
       vertex 106.18 -19.0211 50
       vertex 106.18 -19.0211 0
       vertex 110 -17.3205 0
   end loop
endfacet
facet normal 0.406736 -0.913546 0
   outer loop
       vertex 106.18 -19.0211 50
       vertex 110 -17.3205 0
       vertex 110 -17.3205 50
   end loop
endfacet
facet normal 0 -0 1
   outer loop
       vertex 106.18 -19.0211 0
       vertex 110 -17.3205 0
       vertex 100 0 0
   end loop
endfacet
facet normal 0 -0 1
   outer loop
       vertex 110 -17.3205 50
       vertex 113.383 -14.8629 50
       vertex 100 0 50
   end loop
endfacet
facet normal 0.587784 -0.809018 0
   outer loop
       vertex 110 -17.3205 50
       vertex 110 -17.3205 0
       vertex 113.383 -14.8629 0
   end loop
endfacet
facet normal 0.587784 -0.809018 0
   outer loop
       vertex 110 -17.3205 50
       vertex 113.383 -14.8629 0
       vertex 113.383 -14.8629 50
   end loop
endfacet
facet normal 0 -0 1
   outer loop
       vertex 110 -17.3205 0
       vertex 113.383 -14.8629 0
       vertex 100 0 0
   end loop
endfacet
facet normal 0 -0 1
   outer loop
       vertex 113.383 -14.8629 50
       vertex 116.18 -11.7557 50
       vertex 100 0 50
   end loop
endfacet
facet normal 0.743144 -0.669132 0
   outer loop
       vertex 113.383 -14.8629 50
       vertex 113.383 -14.8629 0
       vertex 116.18 -11.7557 0
   end loop
endfacet
facet normal 0.743144 -0.669132 0
   outer loop
       vertex 113.383 -14.8629 50
       vertex 116.18 -11.7557 0
       vertex 116.18 -11.7557 50
   end loop
endfacet
facet normal 0 -0 1
   outer loop
       vertex 113.383 -14.8629 0
       vertex 116.18 -11.7557 0
       vertex 100 0 0
   end loop
endfacet
facet normal 0 -0 1
   outer loop
       vertex 116.18 -11.7557 50
       vertex 118.271 -8.13476 50
       vertex 100 0 50
   end loop
endfacet
facet normal 0.866025 -0.500001 0
   outer loop
       vertex 116.18 -11.7557 50
       vertex 116.18 -11.7557 0
       vertex 118.271 -8.13476 0
   end loop
endfacet
facet normal 0.866025 -0.500001 0
   outer loop
       vertex 116.18 -11.7557 50
       vertex 118.271 -8.13476 0
       vertex 118.271 -8.13476 50
   end loop
endfacet
facet normal 0 -0 1
   outer loop
       vertex 116.18 -11.7557 0
       vertex 118.271 -8.13476 0
       vertex 100 0 0
   end loop
endfacet
facet normal 0 -0 1
   outer loop
       vertex 118.271 -8.13476 50
       vertex 119.563 -4.15827 50
       vertex 100 0 50
   end loop
endfacet
facet normal 0.951056 -0.309019 0
   outer loop
       vertex 118.271 -8.13476 50
       vertex 118.271 -8.13476 0
       vertex 119.563 -4.15827 0
   end loop
endfacet
facet normal 0.951056 -0.309019 0
   outer loop
       vertex 118.271 -8.13476 50
       vertex 119.563 -4.15827 0
       vertex 119.563 -4.15827 50
   end loop
endfacet
facet normal 0 -0 1
   outer loop
       vertex 118.271 -8.13476 0
       vertex 119.563 -4.15827 0
       vertex 100 0 0
   end loop
endfacet
facet normal 0 -0 1
   outer loop
       vertex 119.563 -4.15827 50
       vertex 120 -4.41868e-05 50
       vertex 100 0 50
   end loop
endfacet
facet normal 0.994522 -0.10453 0
   outer loop
       vertex 119.563 -4.15827 50
       vertex 119.563 -4.15827 0
       vertex 120 -4.41868e-05 0
   end loop
endfacet
facet normal 0.994522 -0.10453 0
   outer loop
       vertex 119.563 -4.15827 50
       vertex 120 -4.41868e-05 0
       vertex 120 -4.41868e-05 50
   end loop
endfacet
facet normal 0 -0 1
   outer loop
       vertex 119.563 -4.15827 0
       vertex 120 -4.41868e-05 0
       vertex 100 0 0
   end loop
endfacet
endsolid OpenSCAD_Model